<?xml version="1.0" encoding="utf-8"?><!DOCTYPE svg PUBLIC "-//W3C//DTD SVG 1.1//EN" "http://www.w3.org/Graphics/SVG/1.1/DTD/svg11.dtd"><svg viewBox="0 0 908 908" xmlns="http://www.w3.org/2000/svg" xmlns:xlink="http://www.w3.org/1999/xlink"><style>:root>svg{display:none}:root>svg:target{display:block}</style><svg viewBox="0 0 32 32" id="clock" xmlns="http://www.w3.org/2000/svg"><path d="M16 3.205C8.934 3.205 3.205 8.934 3.205 16S8.934 28.795 16 28.795 28.795 23.066 28.795 16 23.066 3.205 16 3.205zm0 24.524C9.533 27.729 4.271 22.468 4.271 16S9.532 4.271 16 4.271 27.729 9.532 27.729 16c0 6.467-5.261 11.729-11.729 11.729z"/><path d="M16 17.066H9.602v1.066h7.464V7.513H16z"/></svg><svg viewBox="0 0 32 32" id="comment" xmlns="http://www.w3.org/2000/svg"><path d="M26.664 4.82H5.336a2.132 2.132 0 00-2.132 2.133v13.868c0 1.178.955 2.133 2.132 2.133h14.968l4.226 4.226v-4.226h2.134a2.133 2.133 0 002.133-2.133V6.953a2.133 2.133 0 00-2.133-2.133zm1.066 16.001c0 .588-.479 1.066-1.066 1.066h-3.2v2.718l-2.718-2.718H5.336a1.067 1.067 0 01-1.066-1.066V6.953c0-.588.479-1.066 1.066-1.066h21.328c.588 0 1.066.478 1.066 1.066v13.868z"/><path d="M16 12.824a1.066 1.066 0 100 2.133 1.066 1.066 0 000-2.133zM20.265 12.824a1.066 1.066 0 100 2.133 1.066 1.066 0 000-2.133zM11.835 12.824a1.066 1.066 0 100 2.133 1.066 1.066 0 000-2.133z"/></svg><svg viewBox="0 0 24 24" id="facebook" xmlns="http://www.w3.org/2000/svg"><path d="M15.997 3.985h2.191V.169C17.81.117 16.51 0 14.996 0c-3.159 0-5.323 1.987-5.323 5.639V9H6.187v4.266h3.486V24h4.274V13.267h3.345l.531-4.266h-3.877V6.062c.001-1.233.333-2.077 2.051-2.077z"/></svg><svg viewBox="0 0 436.353 436.353" id="graphicriver" xmlns="http://www.w3.org/2000/svg"><path d="M146.967 170.644c-1.634 0-2.447.743-2.447 2.218v3.615c-1.026-1.741-2.497-3.112-4.414-4.117-1.916-1.01-3.898-1.512-5.948-1.512-5.128 0-9.207 2.033-12.238 6.105-2.717 3.663-4.076 8.128-4.076 13.403 0 5.317 1.359 9.832 4.076 13.536 3.031 4.118 7.11 6.163 12.238 6.163 2.136 0 4.121-.444 5.951-1.334 2.095-1.029 3.562-2.415 4.411-4.154 0 9.962-3.453 14.949-10.362 14.949-2.36 0-4.702-.515-7.018-1.544a557.005 557.005 0 00-4.48-2.408c-.538-.269-1.026-.403-1.472-.403-1.381 0-2.071.783-2.071 2.346 0 1.023.401 1.9 1.208 2.616 3.437 2.9 7.93 4.352 13.472 4.352 4.871 0 8.712-1.46 11.527-4.385 2.814-2.93 4.223-6.826 4.223-11.697V173c0-1.568-.86-2.356-2.58-2.356zm-4.859 30.234c-1.971 3.217-4.604 4.824-7.912 4.824-3.305 0-5.942-1.632-7.908-4.891-1.79-2.905-2.683-6.431-2.683-10.588 0-4.067.875-7.486 2.616-10.256 1.963-3.083 4.626-4.626 7.975-4.626 3.353 0 6.008 1.562 7.979 4.689 1.74 2.816 2.614 6.285 2.614 10.391.001 4.11-.895 7.598-2.681 10.457zM168.649 170.778c-2.726 0-5.63 2.484-8.712 7.445v-4.757c0-1.794-.803-2.688-2.411-2.688-1.656 0-2.482.946-2.482 2.82v33.108c0 1.658.826 2.486 2.482 2.486 1.607 0 2.411-.828 2.411-2.486v-17.595c0-3.934 1.071-6.888 3.219-8.859 1.026-.941 2.972-1.944 5.831-3.024 2.145-.802 3.219-1.767 3.219-2.886 0-1.029-.347-1.882-1.043-2.555a3.5 3.5 0 00-2.514-1.009zM201.426 170.581c-1.7 0-2.551 1.074-2.551 3.215v3.157c-.934-1.746-2.438-3.196-4.512-4.358-2.072-1.164-4.22-1.749-6.45-1.749-4.769 0-8.602 2.173-11.499 6.5-2.631 3.933-3.946 8.63-3.946 14.075 0 5.143 1.185 9.44 3.552 12.869 2.681 3.845 6.346 5.764 10.994 5.764 2.815 0 5.026-.305 6.638-.931 1.963-.716 3.73-2.059 5.297-4.026 0 .629.019 1.577.063 2.85.044 1.273.871 1.906 2.482 1.906 1.607 0 2.414-.665 2.414-2.014V173.66c-.002-2.049-.83-3.079-2.482-3.079zm-5.338 30.502c-2.078 3.208-4.824 4.823-8.229 4.823-3.146 0-5.646-1.564-7.501-4.688-1.64-2.815-2.459-6.26-2.459-10.327 0-4.066.82-7.505 2.459-10.319 1.855-3.083 4.356-4.625 7.501-4.625 3.493 0 6.263 1.518 8.296 4.555 1.814 2.726 2.72 6.081 2.72 10.053-.001 4.116-.927 7.618-2.787 10.528zM224.855 170.778c-3.653 0-7.152 2.147-10.495 6.438v-3.686c0-1.832-.826-2.751-2.482-2.751-1.697 0-2.545.833-2.545 2.478v48.937c0 1.651.814 2.479 2.448 2.479 1.719 0 2.582-.818 2.582-2.471V204.77c3.164 3.616 6.664 5.426 10.496 5.426 5.169 0 9.253-2.015 12.239-6.043 2.668-3.629 4.01-8.077 4.01-13.364 0-5.363-1.361-9.958-4.077-13.764-3.034-4.163-7.091-6.247-12.176-6.247zm7.744 30.221c-1.913 3.23-4.496 4.837-7.746 4.837-3.255 0-5.859-1.631-7.823-4.898-1.782-2.909-2.669-6.449-2.669-10.612 0-4.125.867-7.574 2.606-10.346 1.915-3.141 4.543-4.703 7.886-4.703 3.294 0 5.9 1.584 7.812 4.765 1.693 2.822 2.539 6.293 2.539 10.417.003 4.167-.868 7.675-2.605 10.54zM269.926 174.266c-2.459-2.23-5.405-3.349-8.849-3.349-4.29 0-7.706 1.697-10.254 5.091v-13.86c0-1.748-.83-2.625-2.482-2.625-1.606 0-2.415.871-2.415 2.619v44.698c0 1.652.809 2.484 2.415 2.484 1.652 0 2.482-.832 2.482-2.478v-21.047c0-3.221.96-5.789 2.882-7.706 1.744-1.706 3.842-2.548 6.301-2.548 2.458 0 4.535.844 6.23 2.548 1.881 1.875 2.818 4.449 2.818 7.706v21.047c0 1.646.804 2.478 2.411 2.478 1.653 0 2.479-.832 2.479-2.478v-23.195c.002-3.843-1.337-6.97-4.018-9.385zM282.594 159.523c-2.281 0-3.42 1.067-3.42 3.215 0 .941.3 1.773.905 2.517.604.729 1.419 1.106 2.449 1.106 2.409 0 3.619-1.073 3.619-3.216 0-.939-.324-1.778-.973-2.517-.648-.736-1.509-1.105-2.58-1.105zM282.556 170.846c-1.627 0-2.441.826-2.441 2.479v33.45c0 1.697.834 2.546 2.515 2.546 1.67 0 2.513-.849 2.513-2.546v-33.45c-.001-1.653-.866-2.479-2.587-2.479zM307.863 176.084c1.386 0 2.757.38 4.12 1.168 1.364.781 2.246 1.176 2.647 1.176.804 0 1.475-.283 2.013-.844.539-.561.803-1.196.803-1.906 0-.897-.383-1.662-1.138-2.278-.941-.804-2.301-1.454-4.089-1.949-1.524-.401-2.86-.604-4.022-.604-5.32 0-9.54 2.061-12.669 6.172-2.858 3.754-4.289 8.286-4.289 13.605 0 5.319 1.411 9.788 4.221 13.401 3.174 4.073 7.467 6.1 12.869 6.1 3.354 0 5.9-.714 7.643-2.144.848-.717 1.274-1.562 1.274-2.546 0-1.564-.827-2.346-2.479-2.346-.313 0-1.297.28-2.95.832-1.653.567-3.061.846-4.224.846-3.525 0-6.301-1.43-8.311-4.297-1.786-2.541-2.678-5.719-2.678-9.514 0-3.977.961-7.377 2.883-10.185 2.094-3.13 4.887-4.687 8.376-4.687zM334.135 170.778c-2.723 0-5.628 2.484-8.71 7.445v-4.757c0-1.794-.803-2.688-2.415-2.688-1.652 0-2.48.946-2.48 2.82v33.108c0 1.658.828 2.486 2.48 2.486 1.612 0 2.415-.828 2.415-2.486v-17.595c0-3.934 1.07-6.888 3.216-8.859 1.025-.941 2.972-1.944 5.829-3.024 2.149-.802 3.22-1.767 3.22-2.886 0-1.029-.346-1.882-1.037-2.555a3.517 3.517 0 00-2.518-1.009zM344.792 159.523c-2.279 0-3.418 1.067-3.418 3.215 0 .941.301 1.773.903 2.517.606.729 1.42 1.106 2.452 1.106 2.408 0 3.618-1.073 3.618-3.216 0-.939-.325-1.778-.977-2.517-.646-.736-1.506-1.105-2.578-1.105zM344.757 170.846c-1.627 0-2.446.826-2.446 2.479v33.45c0 1.697.839 2.546 2.513 2.546 1.677 0 2.513-.849 2.513-2.546v-33.45c-.001-1.653-.861-2.479-2.58-2.479zM378.9 171.991c-1.347 0-2.336.954-2.964 2.873l-8.914 25.965-8.479-25.894c-.584-1.965-1.59-2.942-3.024-2.942-1.387 0-2.083.761-2.083 2.301 0 .369.067.762.199 1.182l10.659 31.773c.49 1.386 1.38 2.077 2.681 2.077 1.471 0 2.455-.691 2.945-2.077l10.926-31.835c.136-.364.202-.717.202-1.072.006-1.576-.712-2.351-2.148-2.351zM414.899 187.541c0-5.142-1.381-9.214-4.151-12.233-2.77-3.011-6.546-4.529-11.324-4.529-5.055 0-9.074 2.058-12.064 6.175-2.773 3.706-4.159 8.218-4.159 13.536 0 5.362 1.409 9.851 4.227 13.473 3.219 4.111 7.572 6.165 13.068 6.165 5.989 0 10.567-2.009 13.737-6.03.315-.356.475-.802.475-1.341 0-.629-.248-1.206-.741-1.741-.494-.542-1.078-.806-1.749-.806-.542 0-1.411.497-2.624 1.475-1.658 1.302-2.913 2.167-3.763 2.61-1.746.985-3.537 1.482-5.377 1.482-3.044 0-5.744-1.34-8.096-4.021-2.354-2.68-3.529-5.605-3.529-8.784h24.326c1.166-.005 1.744-1.816 1.744-5.431zm-26.072.337c.091-3.889 1.232-6.997 3.432-9.322 2.015-2.053 4.438-3.083 7.26-3.083 2.825 0 5.202 1.029 7.127 3.083 2.15 2.28 3.231 5.387 3.231 9.322h-21.05zM435.311 171.788a3.508 3.508 0 00-2.513-1.009c-2.727 0-5.632 2.484-8.716 7.445v-4.757c0-1.794-.803-2.688-2.413-2.688-1.652 0-2.479.946-2.479 2.82v33.108c0 1.658.826 2.486 2.479 2.486 1.61 0 2.413-.828 2.413-2.486v-17.595c0-3.934 1.074-6.888 3.219-8.859 1.029-.941 2.971-1.944 5.834-3.024 2.144-.802 3.218-1.767 3.218-2.886-.003-1.029-.351-1.882-1.042-2.555zM91.109 168.305l-.13-.065c.121 6.445 1.083 35.219 8.547 18.932 0 0-5.516 6.596-8.417-18.867z"/><path d="M99.459 161.651H38.818a4.918 4.918 0 00-4.916 4.92v60.64c0 1.038.336 1.99.89 2.786-3.025 1.733-6.275 2.565-9.832 2.565h-.003c-5.795 0-12.684-2.015-21.675-6.335L.19 224.739l-.181 3.42c-.017.318-.347 7.886 5.461 14.012 5.131 5.406 13.186 7.906 24.112 7.398-.075 5.336.59 17.435 7.53 25.324l1.7 1.937 1.716-1.92c.276-.312 6.735-7.759 12.08-32.964 5.395-2.184 19.124-9.821 19.124-9.821h27.724a4.914 4.914 0 004.916-4.914v-60.64a4.916 4.916 0 00-4.913-4.92zm-39.239 8.771l12.449-1.17c-6.812 6.476-13.611 23.175-13.611 23.175l-.257-.865-.083-.267-.034-.286-.499-3.965-.572-4.524-.057-.452.06-.445.534-3.939-.441-3.521-.375-2.968 2.886-.773zm42.44 19.629c-1.96 1.64-5.379 5.815-6.419 8.73-9.042 25.318-46.048 39.215-46.414 39.355l-1.185.438-.251 1.237c-3.501 17.004-7.508 25.775-9.678 29.601-5.557-8.872-4.474-21.941-4.46-22.089l.24-2.713-2.712.237c-10.628.915-18.42-1.042-22.942-5.771-2.219-2.314-3.286-4.941-3.798-7.012 7.879 3.445 14.282 5.07 19.918 5.07h.003c14.189 0 23.985-10.215 32.757-34.134a95.61 95.61 0 015.456-12.195s12.149-27.106 24.399-27.788c5.09-.185 6.616.284 6.616.284 5.188.827 8.474 4.072 8.474 9.068l-.004 17.682z"/></svg><svg viewBox="0 0 512.001 512.001" id="instagram" xmlns="http://www.w3.org/2000/svg"><path d="M373.406 0H138.594C62.172 0 0 62.172 0 138.594V373.41C0 449.828 62.172 512 138.594 512H373.41C449.828 512 512 449.828 512 373.41V138.594C512 62.172 449.828 0 373.406 0zm108.578 373.41c0 59.867-48.707 108.574-108.578 108.574H138.594c-59.871 0-108.578-48.707-108.578-108.574V138.594c0-59.871 48.707-108.578 108.578-108.578H373.41c59.867 0 108.574 48.707 108.574 108.578zm0 0"/><path d="M256 116.004c-77.195 0-139.996 62.8-139.996 139.996S178.804 395.996 256 395.996 395.996 333.196 395.996 256 333.196 116.004 256 116.004zm0 249.976c-60.64 0-109.98-49.335-109.98-109.98 0-60.64 49.34-109.98 109.98-109.98 60.645 0 109.98 49.34 109.98 109.98 0 60.645-49.335 109.98-109.98 109.98zm0 0M399.344 66.285c-22.813 0-41.367 18.559-41.367 41.367 0 22.813 18.554 41.371 41.367 41.371s41.37-18.558 41.37-41.37-18.558-41.368-41.37-41.368zm0 52.719c-6.258 0-11.352-5.094-11.352-11.352 0-6.261 5.094-11.351 11.352-11.351 6.261 0 11.355 5.09 11.355 11.351 0 6.258-5.094 11.352-11.355 11.352zm0 0"/></svg><svg viewBox="0 0 27 32" id="like" xmlns="http://www.w3.org/2000/svg"><path d="M27.275 15.638c0-1.288-1.02-2.282-2.374-2.282h-8.536c.545-1.265 1.524-3.919 1.524-6.659 0-3.128-1.569-3.784-2.886-3.784-.816 0-1.996.619-1.996 1.737 0 .472-.075 4.671-2.639 6.822-2.732 2.292-3.509 2.891-5.005 2.891-1.746 0-4.847.038-4.847.038l-.517.007v12.206h5.712c.371 0 1.483.496 2.466.932 1.622.722 3.459 1.541 4.696 1.541l8.25-.003c1.343 0 2.436-1.056 2.436-2.354 0-.529-.189-1.012-.494-1.405a2.35 2.35 0 001.711-2.254c0-.539-.19-1.031-.496-1.429a2.397 2.397 0 001.677-2.277c0-.538-.184-1.031-.485-1.431a2.372 2.372 0 001.801-2.295zm-2.374 1.324h-1.822v1.049h.477c.746 0 1.353.607 1.353 1.353s-.608 1.353-1.353 1.353H22.03v1.049h.394a1.306 1.306 0 010 2.61h-1.443v1.049h.143c.764 0 1.387.586 1.387 1.305 0 .72-.623 1.305-1.387 1.305h-1.34v.003h-6.91c-1.014 0-2.819-.804-4.27-1.45-1.425-.634-2.326-1.023-2.892-1.023H1.049V15.444c.955-.011 3.013-.032 4.315-.032 1.94 0 2.959-.854 5.679-3.136 2.868-2.406 3.014-6.774 3.014-7.626 0-.428.657-.688.947-.688.549 0 1.837 0 1.837 2.735 0 3.456-1.745 6.91-1.762 6.945l-.39.763h6.426c.018.013.03 0 .03 0h3.757c.767 0 1.325.532 1.325 1.233 0 .73-.594 1.324-1.325 1.324z"/></svg><svg viewBox="0 0 32 32" id="link" xmlns="http://www.w3.org/2000/svg"><path d="M17.534 20.793a5.064 5.064 0 01-3.592-1.485l.754-.754a4.02 4.02 0 005.678 0l6.715-6.716a4.02 4.02 0 000-5.677l-1.251-1.25a4.02 4.02 0 00-5.677 0L15.422 9.65l-.754-.754 4.739-4.739a5.085 5.085 0 017.185 0l1.251 1.25a5.088 5.088 0 010 7.185l-6.715 6.715a5.066 5.066 0 01-3.593 1.485z"/><path d="M9.001 29.329a5.044 5.044 0 01-3.592-1.488l-1.251-1.25a5.086 5.086 0 010-7.185l6.716-6.716a5.088 5.088 0 017.185 0l1.251 1.251-.754.754-1.251-1.251a4.02 4.02 0 00-5.677 0L4.912 20.16a4.02 4.02 0 000 5.677l1.251 1.25c.758.758 1.766 1.176 2.838 1.176s2.08-.418 2.838-1.176l4.469-4.469.754.754-4.469 4.469a5.044 5.044 0 01-3.592 1.488z"/></svg><svg viewBox="0 0 32 32" id="look" xmlns="http://www.w3.org/2000/svg"><path d="M16 6.404c-5.847 0-10.404 3.66-15.994 9.593 4.816 5.073 8.857 9.6 15.994 9.6s12.382-5.73 15.994-9.492c-3.697-4.407-8.943-9.7-15.994-9.7zm0 18.126c-6.336 0-10.16-3.929-14.524-8.532C6.668 10.584 10.796 7.471 16 7.471c6.161 0 10.975 4.443 14.558 8.591-3.523 3.674-8.293 8.469-14.558 8.469z"/><path d="M16 9.603c-3.528 0-6.398 2.87-6.398 6.397s2.87 6.397 6.398 6.397 6.398-2.87 6.398-6.397S19.528 9.603 16 9.603zm0 11.728c-2.939 0-5.331-2.391-5.331-5.331s2.392-5.331 5.331-5.331S21.331 13.06 21.331 16A5.338 5.338 0 0116 21.331z"/><path d="M16 12.268c-2.058 0-3.732 1.674-3.732 3.732s1.674 3.732 3.732 3.732c2.058 0 3.732-1.674 3.732-3.732S18.058 12.268 16 12.268zm0 6.398c-1.47 0-2.666-1.196-2.666-2.666S14.53 13.334 16 13.334 18.666 14.53 18.666 16A2.67 2.67 0 0116 18.666z"/></svg><svg viewBox="0 0 32 32" id="loop" xmlns="http://www.w3.org/2000/svg"><path d="M20.462 10.824l-9.265 9.196.753.756 9.265-9.196z"/><path d="M6.937 21.864c-3.234 0-5.864-2.631-5.864-5.864s2.631-5.864 5.864-5.864c1.566 0 2.987.621 4.04 1.624l.001-.006.054.047 2.076 2.066h-1.905v1.066h3.732v-3.732h-1.066v1.918l-2.084-2.074-.005.005a6.905 6.905 0 00-4.842-1.982c-3.821 0-6.931 3.109-6.931 6.931s3.109 6.931 6.931 6.931a6.907 6.907 0 005.011-2.156l-.753-.754a5.845 5.845 0 01-4.258 1.844zM25.063 9.069a6.887 6.887 0 00-4.597 1.759l.753.753a5.831 5.831 0 013.844-1.446c3.234 0 5.864 2.631 5.864 5.864s-2.631 5.864-5.864 5.864a5.839 5.839 0 01-4.028-1.613l-.002.01-3.531-3.518-.757.751 3.535 3.522.006-.006a6.902 6.902 0 004.776 1.921c3.821 0 6.931-3.109 6.931-6.931s-3.109-6.931-6.931-6.931z"/></svg><svg viewBox="0 0 19 32" id="medal" xmlns="http://www.w3.org/2000/svg"><path d="M13.608 12.783c.639-1.52 2.652-6.383 2.652-7.414V1.314H2.623v4.055c0 1.034 2 5.927 2.624 7.428C2.141 14.343.001 17.54.001 21.245a9.441 9.441 0 0018.882 0c0-3.717-2.153-6.923-5.275-8.463zM3.671 5.368V2.362h5.227v7.177h1.049V2.362h5.264v3.006c0 .575-1.287 3.96-2.569 7.004a9.405 9.405 0 00-3.2-.568 9.402 9.402 0 00-3.23.579C5.122 9.759 3.672 6 3.672 5.368zm5.77 24.269c-4.627 0-8.392-3.765-8.392-8.392s3.765-8.392 8.392-8.392c4.627 0 8.392 3.765 8.392 8.392s-3.765 8.392-8.392 8.392z"/><path d="M9.441 14.951a6.294 6.294 0 100 12.588 6.294 6.294 0 000-12.588zm0 11.539c-2.892 0-5.245-2.353-5.245-5.245S6.549 16 9.441 16c2.893 0 5.245 2.353 5.245 5.245s-2.352 5.245-5.245 5.245z"/></svg><svg viewBox="0 0 32 32" id="paint" xmlns="http://www.w3.org/2000/svg"><path d="M27.995 5.338V3.684a2.611 2.611 0 00-2.611-2.611H8.217a2.61 2.61 0 00-2.61 2.611v1.654h-.489A2.178 2.178 0 002.94 7.517v3.649c0 1.203.975 2.179 2.178 2.179l10.037-.003c.613 0 1.113.499 1.113 1.113v3.679h-2.131v12.795h5.331V18.134h-2.134v-3.679a2.18 2.18 0 00-2.179-2.179h-1.32v.003H5.119a1.114 1.114 0 01-1.112-1.113V7.517c0-.613.499-1.113 1.112-1.113h.489v1.654a2.61 2.61 0 002.61 2.611h17.167a2.611 2.611 0 002.611-2.611V6.404h1.066V5.338h-1.066zM18.4 29.861h-3.199V19.198H18.4v10.663zm8.529-21.803c0 .852-.694 1.545-1.545 1.545H8.217a1.546 1.546 0 01-1.544-1.545V3.684c0-.852.692-1.545 1.544-1.545h17.167c.852 0 1.545.693 1.545 1.545v4.374z"/></svg><svg viewBox="0 0 32 32" id="play" xmlns="http://www.w3.org/2000/svg"><path d="M7.47 6.661L23.48 16 7.47 25.339V6.661zM6.404 4.804v22.391l19.192-11.196L6.404 4.803z"/></svg><svg viewBox="0 0 32 32" id="portfolio" xmlns="http://www.w3.org/2000/svg"><path d="M19.732 7.203V4.537h-7.464v2.666H3.205v20.259h25.59V7.203h-9.063zm-6.398-1.599h5.331v1.599h-5.331V5.604zM12.268 8.27h15.461v8.53h-7.997v-2.133h-7.464V16.8H4.271V8.27h7.997zm6.398 7.463v3.199h-5.331v-3.199h5.331zM4.271 26.396v-8.53h7.997v2.133h7.464v-2.133h7.997v8.53H4.272z"/></svg><svg viewBox="0 0 21 32" id="rocket" xmlns="http://www.w3.org/2000/svg"><path d="M10.667 7.467C9.174 7.467 8 8.64 8 10.134s1.173 2.667 2.667 2.667c1.493 0 2.667-1.173 2.667-2.667s-1.173-2.667-2.667-2.667zm0 4.266c-.907 0-1.6-.693-1.6-1.6s.693-1.6 1.6-1.6c.907 0 1.6.693 1.6 1.6s-.693 1.6-1.6 1.6z"/><path d="M16 18.933V9.12c0-2.987-1.973-7.04-5.333-9.12-3.36 2.08-5.333 6.133-5.333 9.173v9.813L.001 25.599h21.333l-5.333-6.667zm-10.667 5.6H2.24l3.093-3.893v3.893zm9.6 0H6.4V9.173c0-2.4 1.493-5.867 4.267-7.893 2.773 2.027 4.267 5.44 4.267 7.893v15.36zM16 20.64l3.093 3.893H16V20.64zM10.133 26.667H11.2V32h-1.067v-5.333zM12.8 26.667h1.067v3.2H12.8v-3.2zM7.467 26.667h1.067v3.2H7.467v-3.2z"/></svg><svg viewBox="0 0 30 32" id="settings" xmlns="http://www.w3.org/2000/svg"><path d="M25.6 18.453l4.267-.427v-4l-4.267-.427c-.267-1.28-.8-2.453-1.44-3.467l2.4-3.2-2.453-2.453-3.2 2.4c-1.013-.64-2.187-1.173-3.413-1.44l-.48-4.267h-4l-.48 4.267a10.407 10.407 0 00-3.36 1.387L5.867 4.479 3.414 6.932l2.347 3.307a10.407 10.407 0 00-1.387 3.36l-4.267.48v4l4.267.48c.267 1.227.8 2.4 1.44 3.467l-2.4 3.2 2.453 2.453 3.2-2.4c1.013.64 2.187 1.173 3.413 1.44l.533 4.267h4l.533-4.267a10.407 10.407 0 003.36-1.387l3.253 2.347 2.453-2.453-2.4-3.36c.64-1.067 1.12-2.187 1.387-3.413zm3.2-3.52v2.08l-3.2.32c.053-.427.107-.907.107-1.387s-.053-.907-.107-1.387l3.2.373zM23.947 5.76l1.173 1.173-1.76 2.4a9.727 9.727 0 00-1.813-1.813l2.4-1.76zm-10.08-3.627H16l.373 3.2c-.48-.053-.96-.107-1.387-.107-.48 0-.96.053-1.387.107l.267-3.2zM4.693 6.987L5.92 5.76l2.453 1.707c-.373.267-.693.587-1.013.907s-.64.64-.907 1.013l-1.76-2.4zm-3.626 10.08v-2.133l3.2-.373c-.053.48-.107.96-.107 1.44s.053.96.107 1.387l-3.2-.32zm4.853 9.12l-1.173-1.12 1.76-2.4c.533.64 1.12 1.28 1.76 1.76l-2.347 1.76zM16 29.867h-2.133l-.373-3.2c.48.053.96.107 1.44.107s.96-.053 1.44-.107l-.373 3.2zm-1.067-4.214A9.65 9.65 0 015.28 16c0-2.56 1.013-5.013 2.827-6.827s4.267-2.827 6.827-2.827a9.65 9.65 0 019.653 9.653c0 2.56-1.013 5.013-2.827 6.827s-4.213 2.827-6.827 2.827zm10.24-.64L24 26.186l-2.453-1.76c.373-.267.693-.587 1.013-.907s.587-.64.907-1.013l1.707 2.507z"/></svg><svg viewBox="0 0 32 32" id="shopbag" xmlns="http://www.w3.org/2000/svg"><path d="M3.205 3.205v25.59h25.59V3.205H3.205zm24.524 24.524H4.272V4.272h23.457v23.457z"/><path d="M9.068 13.334a6.931 6.931 0 0013.861 0V9.602h1.067V8.536h-3.199v1.066h1.065v3.732a5.87 5.87 0 01-5.864 5.864 5.871 5.871 0 01-5.865-5.864V9.602H11.2V8.536H8.001v1.066h1.065v3.732z"/></svg><svg viewBox="0 0 433.311 433.312" id="themeforest" xmlns="http://www.w3.org/2000/svg"><path d="M109.431 200.024h-3.282v-10.175c0-1.659-.839-2.492-2.514-2.492-1.677 0-2.513.833-2.513 2.492v10.175h-3.489c-1.516-.037-2.278.7-2.278 2.21 0 1.527.806 2.28 2.415 2.28h3.352v30.164c0 1.656.813 2.482 2.444 2.482 1.722 0 2.583-.826 2.583-2.482v-30.16h3.418c1.652 0 2.479-.745 2.479-2.244s-.872-2.25-2.615-2.25zM140.463 202.108c-2.455-2.236-5.407-3.356-8.846-3.356-4.289 0-7.708 1.697-10.256 5.099v-13.867c0-1.748-.826-2.625-2.478-2.625-1.608 0-2.415.877-2.415 2.618v44.697c0 1.662.806 2.488 2.415 2.488 1.652 0 2.478-.826 2.478-2.479v-21.045c0-3.224.959-5.791 2.882-7.716 1.745-1.69 3.844-2.54 6.301-2.54 2.455 0 4.536.848 6.233 2.54 1.878 1.883 2.815 4.449 2.815 7.716v21.045c0 1.653.803 2.479 2.415 2.479 1.649 0 2.478-.826 2.478-2.479v-23.195c.001-3.84-1.34-6.969-4.022-9.38zM181.416 215.377c0-5.137-1.386-9.216-4.153-12.235-2.774-3.017-6.548-4.524-11.331-4.524-5.052 0-9.071 2.053-12.063 6.17-2.774 3.708-4.156 8.225-4.156 13.538 0 5.359 1.408 9.854 4.223 13.471 3.218 4.118 7.574 6.165 13.072 6.165 5.985 0 10.564-2.009 13.737-6.03.313-.356.471-.803.471-1.341 0-.623-.248-1.205-.74-1.741-.493-.534-1.074-.805-1.748-.805-.537 0-1.411.497-2.622 1.479-1.656 1.289-2.914 2.169-3.762 2.613-1.748.984-3.539 1.475-5.376 1.475-3.046 0-5.744-1.338-8.098-4.02-2.352-2.682-3.527-5.605-3.527-8.786h24.328c1.162-.002 1.745-1.814 1.745-5.429zm-26.073.337c.088-3.885 1.23-6.997 3.428-9.316 2.018-2.06 4.438-3.081 7.264-3.081 2.825 0 5.198 1.021 7.127 3.081 2.15 2.281 3.228 5.385 3.228 9.316h-21.047zM231.01 201.777c-2.409-2.104-5.318-3.158-8.706-3.158-5.057 0-8.985 2.144-11.794 6.438-2.325-4.295-5.707-6.438-10.13-6.438-3.977 0-7.237 1.766-9.783 5.293v-2.382c.045-1.937-.769-2.911-2.446-2.911-1.629 0-2.447.984-2.447 2.949v32.979c0 1.654.826 2.48 2.481 2.48 1.608 0 2.412-.835 2.412-2.486V214.32c0-3.214.981-5.821 2.946-7.79 1.792-1.742 3.915-2.619 6.367-2.619 2.148 0 3.959.718 5.434 2.154 1.607 1.607 2.415 3.804 2.415 6.575v21.899c0 1.651.82 2.483 2.478 2.483 1.607 0 2.408-.817 2.408-2.478v-20.127c0-3.254 1.013-5.867 3.019-7.824 1.786-1.785 3.907-2.681 6.375-2.681 2.141 0 3.927.744 5.357 2.212 1.606 1.613 2.415 3.825 2.415 6.641v21.85c0 1.613.846 2.413 2.547 2.413 1.652 0 2.478-.806 2.478-2.422V210.52c-.001-3.582-1.27-6.493-3.826-8.743zM271.769 215.377c0-5.137-1.385-9.216-4.156-12.235-2.771-3.017-6.545-4.524-11.324-4.524-5.056 0-9.073 2.053-12.072 6.17-2.771 3.708-4.156 8.225-4.156 13.538 0 5.359 1.409 9.854 4.231 13.471 3.208 4.118 7.568 6.165 13.065 6.165 5.985 0 10.562-2.009 13.737-6.03.313-.356.47-.803.47-1.341 0-.623-.248-1.205-.736-1.741-.497-.534-1.08-.805-1.748-.805-.543 0-1.412.497-2.626 1.479-1.654 1.289-2.912 2.169-3.76 2.613-1.742.984-3.54 1.475-5.376 1.475-3.052 0-5.745-1.338-8.097-4.02-2.351-2.682-3.532-5.605-3.532-8.786h24.324c1.17-.002 1.756-1.814 1.756-5.429zm-26.08.337c.09-3.885 1.233-6.997 3.433-9.316 2.02-2.06 4.435-3.081 7.263-3.081 2.83 0 5.204 1.021 7.125 3.081 2.152 2.281 3.229 5.385 3.229 9.316h-21.05zM289.459 187.359h-4.358c-3.617 0-5.428 2.06-5.428 6.164v6.438h-3.151c-1.831 0-2.744.858-2.744 2.581 0 1.587.913 2.376 2.744 2.376h3.151v29.758c0 1.66.802 2.486 2.415 2.486 1.652 0 2.478-.826 2.478-2.486v-29.761h4.15c1.925 0 2.888-.833 2.888-2.501 0-1.639-.916-2.452-2.755-2.452h-4.287v-4.689c0-1.704.379-2.727 1.144-3.089.401-.171 1.654-.26 3.75-.26 1.976 0 2.95-.743 2.95-2.217.004-1.566-.975-2.348-2.947-2.348zM309.908 198.684c-5.145 0-9.218 2.04-12.204 6.104-2.676 3.663-4.017 8.152-4.017 13.476 0 5.314 1.341 9.805 4.017 13.473 2.986 4.109 7.054 6.164 12.204 6.164 5.181 0 9.247-1.981 12.195-5.967 2.678-3.58 4.019-7.976 4.019-13.2 0-5.405-1.359-9.991-4.092-13.744-3.033-4.203-7.076-6.306-12.122-6.306zm7.981 30.368c-1.918 2.992-4.583 4.491-8.016 4.491-3.253 0-5.88-1.658-7.88-4.964-1.786-3.038-2.671-6.633-2.671-10.789 0-4.021.845-7.378 2.537-10.052 1.918-3.044 4.588-4.562 8.02-4.562 3.209 0 5.807 1.676 7.814 5.025 1.87 3.082 2.808 6.73 2.808 10.931-.005 3.972-.876 7.282-2.612 9.92zM344.82 198.621c-2.718 0-5.629 2.478-8.711 7.444v-4.76c0-1.785-.8-2.682-2.409-2.682-1.652 0-2.484.933-2.484 2.816v33.114c0 1.652.832 2.479 2.484 2.479 1.609 0 2.409-.826 2.409-2.487v-17.592c0-3.938 1.074-6.894 3.223-8.866 1.029-.938 2.97-1.943 5.837-3.017 2.14-.806 3.214-1.773 3.214-2.892 0-1.029-.35-1.88-1.041-2.545-.697-.676-1.535-1.012-2.522-1.012zM380.546 215.377c0-5.137-1.386-9.216-4.156-12.235-2.768-3.017-6.543-4.524-11.32-4.524-5.048 0-9.078 2.053-12.062 6.17-2.77 3.708-4.154 8.225-4.154 13.538 0 5.359 1.403 9.854 4.219 13.471 3.217 4.118 7.575 6.165 13.072 6.165 5.985 0 10.569-2.009 13.739-6.03.311-.356.468-.803.468-1.341 0-.623-.246-1.205-.745-1.741-.49-.534-1.063-.805-1.741-.805-.539 0-1.41.497-2.625 1.479-1.66 1.289-2.909 2.169-3.762 2.613-1.747.984-3.537 1.475-5.375 1.475-3.043 0-5.745-1.338-8.095-4.02-2.358-2.682-3.528-5.605-3.528-8.786h24.327c1.16-.002 1.738-1.814 1.738-5.429zm-26.066.337c.09-3.885 1.227-6.997 3.422-9.316 2.019-2.06 4.445-3.081 7.268-3.081s5.198 1.021 7.131 3.081c2.148 2.281 3.227 5.385 3.227 9.316H354.48zM406.824 218.021c-1.029-.673-4.38-2.324-10.053-4.97-3.617-1.662-5.434-3.203-5.434-4.632 0-3.184 1.717-4.771 5.168-4.771 3.615 0 7.212 1.162 10.784 3.475.544.325 1.05.477 1.544.477 1.423 0 2.141-.87 2.141-2.611 0-.934-.362-1.716-1.074-2.346-3.17-2.636-7.167-3.958-11.997-3.958-3.444 0-6.228.804-8.374 2.412-2.452 1.838-3.687 4.493-3.687 7.981 0 3.083 1.786 5.675 5.362 7.772a1588.38 1588.38 0 009.99 4.558c3.521 1.696 5.287 3.579 5.287 5.628 0 3.978-2.145 5.968-6.433 5.968-2.104 0-4.271-.477-6.507-1.437-2.231-.967-3.773-2.019-4.622-3.19-.539-.714-1.117-1.063-1.739-1.063-.631 0-1.177.325-1.646.966a3.626 3.626 0 00-.699 2.181c0 .804.237 1.498.736 2.084 3.037 3.527 7.391 5.294 13.065 5.294 3.754 0 6.901-.94 9.45-2.828 2.777-2.105 4.162-4.989 4.162-8.659.008-3.14-1.809-5.917-5.424-8.331zM430.685 200.024h-3.284v-10.175c0-1.659-.834-2.492-2.509-2.492-1.678 0-2.517.833-2.517 2.492v10.175h-3.483c-1.527-.037-2.28.7-2.28 2.21 0 1.527.806 2.28 2.409 2.28h3.354v30.164c0 1.656.813 2.482 2.447 2.482 1.722 0 2.584-.826 2.584-2.482v-30.16h3.418c1.654 0 2.486-.745 2.486-2.244-.005-1.5-.884-2.25-2.625-2.25zM84.953 218.759c-.017-.021-.031-.027-.048-.054-1.742-1.859-4.443-2.686-8.753-2.686-1.554 0-3.651.108-5.708.33l.028-34.677a4.922 4.922 0 00-4.918-4.921H4.916A4.92 4.92 0 000 181.673v60.635a4.916 4.916 0 004.916 4.92h16.277c.325.5.662.99 1.043 1.454 4.296 5.223 11.81 7.878 22.332 7.878 8.02 0 16.307-1.489 21.794-2.471l2.008-.359c6.666-1.154 10.301-2.626 12.572-5.038.978-.368 2.236-1.021 2.726-2.026a2.108 2.108 0 00.089-1.674c-.165-.441-.457-.79-.815-1.074a8.66 8.66 0 00.663-1.093c.798-.395 1.618-.96 1.99-1.724.26-.532.292-1.131.085-1.674-.212-.565-.642-.984-1.163-1.311-.02-.344-.045-.678-.089-1.011.121-.186.229-.369.333-.552 1.218-.427 2.987-1.253 3.639-2.594a2.527 2.527 0 00.105-2.03c-.438-1.179-1.618-1.849-2.86-2.25a.76.76 0 01.213-.425c.274-.508.661-1.034.984-1.608 1.468-.551 3.419-1.54 4.16-3.067a3.125 3.125 0 00.133-2.497c-.867-2.315-4.051-3.069-6.182-3.323zm-1.287 8.817l-7.528 1.117 7.223.803c.566 1.733 1.032 4.982-1.941 7.766 0 0 .035.075.085.204l-5.938.787 6.292.61c.146.99.108 2.293-.627 3.514l-4.95 1.442 4.01-.108c-.017.781-.769 4.104-12.291 6.105-13.128 2.279-49.95 10.273-44.244-18.555 5.713-28.832 36.539-41.385 42.816-41.385v27.756a151.556 151.556 0 00-9.078 1.722c-2.945-.401-9.951-1.191-13.61-.075l8.341 1.392c-7.512 2.061-10.769 3.888-10.769 3.888 8.732-2.531 18.544-4.043 23.1-4.666 7.747-.857 16.297-.306 18.002 1.518 2.923 3.122 1.99 5.169 1.107 6.165z"/></svg><svg viewBox="-21 -81 681.335 681" id="twitter" xmlns="http://www.w3.org/2000/svg"><path d="M200.965 515.293c241.05 0 372.87-199.703 372.87-372.871 0-5.672-.116-11.32-.37-16.938a266.692 266.692 0 0065.37-67.863c-23.48 10.441-48.753 17.461-75.257 20.637 27.055-16.23 47.828-41.895 57.625-72.488a262.838 262.838 0 01-83.215 31.808c-23.914-25.473-57.965-41.402-95.664-41.402-72.367 0-131.058 58.687-131.058 131.031 0 10.29 1.152 20.29 3.398 29.883C205.746 151.61 109.16 99.465 44.531 20.168 33.281 39.531 26.79 62.031 26.79 86.039c0 45.461 23.137 85.606 58.316 109.082-21.5-.66-41.695-6.562-59.351-16.387-.02.551-.02 1.086-.02 1.672 0 63.469 45.172 116.461 105.145 128.469a131.531 131.531 0 01-34.559 4.61c-8.43 0-16.648-.829-24.632-2.364 16.683 52.07 65.066 89.961 122.425 91.024-44.855 35.156-101.36 56.097-162.77 56.097-10.562 0-21.003-.605-31.261-1.816 58 37.176 126.871 58.87 200.887 58.87"/></svg><svg viewBox="0 0 363.755 363.756" id="videohive" xmlns="http://www.w3.org/2000/svg"><path d="M127.741 166.695c-1.347 0-2.331.959-2.961 2.879l-8.91 25.967-8.477-25.896c-.585-1.963-1.595-2.949-3.024-2.949-1.392 0-2.084.769-2.084 2.3 0 .375.064.769.196 1.188l10.656 31.773c.496 1.378 1.385 2.071 2.681 2.071 1.475 0 2.459-.693 2.949-2.071l10.929-31.837c.134-.362.203-.718.203-1.074.003-1.562-.721-2.351-2.158-2.351zM137.77 165.558c-1.627 0-2.441.826-2.441 2.485v33.443c0 1.698.84 2.541 2.511 2.541 1.677 0 2.509-.846 2.509-2.541v-33.443c.001-1.659-.858-2.485-2.579-2.485zM137.806 154.232c-2.28 0-3.417 1.074-3.417 3.216 0 .933.304 1.772.902 2.51.604.737 1.423 1.105 2.447 1.105 2.413 0 3.622-1.067 3.622-3.208 0-.947-.324-1.779-.972-2.517-.65-.737-1.513-1.106-2.582-1.106zM175.439 154.232c-1.715 0-2.58.871-2.58 2.625v14.933c-3.254-4.155-6.888-6.233-10.891-6.233-4.817 0-8.674 2.103-11.572 6.311-2.625 3.806-3.946 8.42-3.946 13.833 0 5.234 1.271 9.663 3.812 13.295 2.854 3.983 6.755 5.973 11.706 5.973 4.943 0 8.572-1.831 10.891-5.491v3.147c0 1.564.864 2.346 2.58 2.346 1.627 0 2.447-.759 2.447-2.281v-45.844c-.001-1.743-.821-2.614-2.447-2.614zm-4.996 41.217c-2.097 3.044-4.912 4.562-8.439 4.562-3.222 0-5.77-1.499-7.645-4.492-1.697-2.682-2.547-5.986-2.547-9.918 0-4.024.877-7.438 2.618-10.259 1.875-3.126 4.398-4.697 7.574-4.697 3.527 0 6.316 1.526 8.376 4.564 1.881 2.771 2.809 6.163 2.809 10.186.001 3.934-.914 7.291-2.746 10.054zM215.156 182.244c0-5.136-1.385-9.216-4.156-12.226-2.77-3.018-6.545-4.531-11.33-4.531-5.052 0-9.067 2.06-12.067 6.17-2.771 3.712-4.155 8.223-4.155 13.542 0 5.362 1.41 9.849 4.229 13.475 3.222 4.107 7.573 6.162 13.071 6.162 5.985 0 10.562-2.009 13.737-6.03.313-.355.471-.806.471-1.341 0-.622-.248-1.204-.737-1.741-.495-.541-1.08-.806-1.754-.806-.537 0-1.411.497-2.621 1.475-1.652 1.297-2.91 2.167-3.759 2.612-1.751.985-3.539 1.474-5.376 1.474-3.05 0-5.748-1.341-8.096-4.015-2.351-2.68-3.533-5.61-3.533-8.783h24.331c1.161-.006 1.745-1.814 1.745-5.437zm-26.079.339c.089-3.89 1.233-6.992 3.432-9.317 2.019-2.053 4.435-3.082 7.27-3.082 2.824 0 5.191 1.029 7.119 3.082 2.151 2.281 3.234 5.39 3.234 9.317h-21.055zM235.662 165.558c-5.141 0-9.208 2.033-12.194 6.1-2.679 3.667-4.028 8.152-4.028 13.473 0 5.319 1.35 9.812 4.028 13.477 2.986 4.11 7.054 6.165 12.194 6.165 5.188 0 9.252-1.99 12.201-5.968 2.682-3.577 4.022-7.974 4.022-13.205 0-5.407-1.366-9.982-4.093-13.744-3.037-4.196-7.079-6.298-12.13-6.298zm7.988 30.367c-1.919 2.985-4.585 4.487-8.017 4.487-3.253 0-5.881-1.652-7.88-4.963-1.792-3.038-2.681-6.634-2.681-10.785 0-4.022.851-7.378 2.541-10.055 1.919-3.043 4.586-4.561 8.02-4.561 3.199 0 5.805 1.676 7.815 5.024 1.869 3.089 2.807 6.724 2.807 10.924 0 3.983-.87 7.286-2.605 9.929zM280.976 168.977c-2.455-2.238-5.41-3.355-8.852-3.355-4.286 0-7.705 1.703-10.25 5.102v-13.866c0-1.754-.826-2.625-2.484-2.625-1.608 0-2.409.871-2.409 2.611v44.706c0 1.658.804 2.478 2.409 2.478 1.658 0 2.484-.819 2.484-2.478v-21.041c0-3.222.953-5.791 2.873-7.714 1.75-1.697 3.85-2.541 6.307-2.541 2.456 0 4.535.845 6.236 2.541 1.869 1.881 2.81 4.448 2.81 7.714v21.041c0 1.658.807 2.478 2.414 2.478 1.652 0 2.479-.819 2.479-2.478v-23.188c0-3.845-1.335-6.97-4.017-9.385zM293.641 154.232c-2.278 0-3.425 1.074-3.425 3.216 0 .933.305 1.772.915 2.51.598.737 1.411 1.105 2.441 1.105 2.413 0 3.624-1.067 3.624-3.208 0-.947-.331-1.779-.973-2.517-.65-.737-1.508-1.106-2.582-1.106zM293.61 165.558c-1.637 0-2.452.826-2.452 2.485v33.443c0 1.698.839 2.541 2.517 2.541 1.676 0 2.517-.846 2.517-2.541v-33.443c-.002-1.659-.867-2.485-2.582-2.485zM327.747 166.695c-1.348 0-2.332.959-2.961 2.879l-8.912 25.967-8.478-25.896c-.584-1.963-1.602-2.949-3.031-2.949-1.385 0-2.078.769-2.078 2.3 0 .375.065.769.197 1.188l10.655 31.773c.498 1.378 1.385 2.071 2.682 2.071 1.474 0 2.452-.693 2.947-2.071l10.931-31.837c.127-.362.195-.718.195-1.074.006-1.562-.711-2.351-2.147-2.351zM361.058 194.916c-.534 0-1.41.498-2.619 1.475-1.651 1.296-2.91 2.167-3.762 2.612-1.747.985-3.537 1.474-5.373 1.474-3.054 0-5.747-1.341-8.095-4.015-2.353-2.679-3.534-5.612-3.534-8.781H362c1.17 0 1.755-1.811 1.755-5.436 0-5.135-1.384-9.215-4.153-12.225-2.771-3.018-6.545-4.531-11.33-4.531-5.055 0-9.068 2.06-12.067 6.171-2.771 3.711-4.156 8.223-4.156 13.542 0 5.362 1.41 9.849 4.226 13.473 3.224 4.11 7.575 6.164 13.071 6.164 5.986 0 10.569-2.009 13.739-6.03.311-.355.47-.806.47-1.341 0-.622-.241-1.206-.736-1.741-.504-.545-1.088-.811-1.761-.811zm-19.954-21.652c2.019-2.053 4.436-3.082 7.264-3.082 2.82 0 5.198 1.029 7.123 3.082 2.16 2.281 3.231 5.39 3.231 9.316h-21.047c.086-3.889 1.23-6.99 3.429-9.316zM82.562 146.899h-1.671a12.325 12.325 0 00-1.367-1.627 12.36 12.36 0 00-8.809-3.654c-3.126 0-6.062 1.156-8.362 3.247-1.467-1.366-3.229-2.624-5.242-3.692-4.848-2.567-10.06-3.386-13.923-2.199-2.07.642-3.628 1.843-4.486 3.476-.699 1.302-.902 2.829-.623 4.448H21.924a4.92 4.92 0 00-4.918 4.919v28.353a12.175 12.175 0 00-1.367-.081 12.385 12.385 0 00-8.813 3.659 12.376 12.376 0 00-3.647 8.802c0 3.125 1.156 6.075 3.247 8.367-1.367 1.469-2.625 3.229-3.692 5.242C.167 211.008-.653 216.21.536 220.082c.642 2.077 1.843 3.626 3.476 4.491 1.627.855 3.589.978 5.663.334 3.52-1.079 7.009-4.188 9.544-8.396.774.53 1.69.852 2.707.852h60.637a4.915 4.915 0 004.918-4.919v-60.629a4.92 4.92 0 00-4.919-4.916zm-12.323-3.234c2.904 0 5.649 1.131 7.702 3.191a10.831 10.831 0 012.778 10.662l-13.44-13.439a10.94 10.94 0 012.96-.414zm6.946 19.356l-.775.781-5.458-5.458a6.778 6.778 0 011.943.673c1.543.82 3.017 2.219 4.29 4.004zm-2.72-5.394c-.209-.126-.419-.273-.629-.389-1.659-.87-3.323-1.175-4.886-.896l-1.804-1.811c.14-1.862-.438-3.882-1.639-5.859l8.958 8.955zm-8.725 3.595c.203-.38.432-.73.68-1.048l6.799 6.805-1.957 1.963c-.051.051-.114.096-.166.152l-6.062-6.062c.192-.645.419-1.256.706-1.81zm-3.757-13.82c1.45 1.602 2.466 3.292 2.91 4.886l-3.895-3.896.985-.99zm1.654 9.996c-.611.541-1.373.973-2.301 1.258-.179.05-.369.083-.546.127l-5.083-5.083c.05-.051.088-.108.14-.16l1.97-1.963 5.82 5.821zm-23.156-14.005c.604-1.149 1.748-2.008 3.304-2.484 3.318-1.029 8.057-.236 12.387 2.045a21.876 21.876 0 014.714 3.337l-6.622 6.621a12.244 12.244 0 00-2.954 4.759 22.193 22.193 0 01-2.359-1.067c-4.327-2.287-7.645-5.763-8.668-9.08-.483-1.552-.414-2.981.198-4.131zm13.765 15.212a25.254 25.254 0 01-1.157-.319c.064-.215.121-.431.191-.647l.966.966zm-33.669 31.773c.82-1.543 2.218-3.018 4.004-4.289l.775.775-5.452 5.458a6.888 6.888 0 01.673-1.944zm4.017 7.861c-.647-.192-1.265-.418-1.804-.707a6.795 6.795 0 01-1.049-.672l6.807-6.806 1.957 1.957c.051.052.095.113.152.165l-6.063 6.063zm8.483-2.122c.247.699.413 1.437.515 2.173a22.259 22.259 0 01-3.165.477l2.65-2.65zm-15.175-1.793l-1.81 1.803c-1.862-.146-3.884.439-5.859 1.64l8.954-8.954c-.127.201-.273.407-.388.622-.878 1.656-1.177 3.334-.897 4.889zm-4.061 4.057l-3.888 3.893-.991-.983c1.601-1.458 3.292-2.468 4.879-2.91zm-8.203-2.385a10.897 10.897 0 01-.413-2.961c0-2.903 1.131-5.644 3.191-7.704s4.792-3.195 7.702-3.195c1.017 0 2.008.152 2.961.412L5.638 195.996zm12.524 18.326c-2.287 4.327-5.764 7.652-9.08 8.667-1.557.482-2.98.412-4.131-.196-1.15-.604-2.008-1.75-2.492-3.298-1.022-3.323-.235-8.064 2.053-12.392a21.554 21.554 0 013.343-4.714l6.609 6.619a12.471 12.471 0 004.766 2.965 25.126 25.126 0 01-1.068 2.349zm1.686-4.129a8.65 8.65 0 01-.642-.203l.953-.959c-.09.384-.198.768-.311 1.162zm-4.589-2.62c-.058-.051-.108-.103-.159-.152l-1.97-1.963 5.827-5.822c.541.611.973 1.372 1.258 2.303.051.169.082.368.121.543l-5.077 5.091zm6.584-8.261c.362.196.757.357 1.162.513l-1.055 1.05c-.304-.834-.686-1.588-1.168-2.22.33.234.685.461 1.061.657zm.959 11.293c-.324 0-.648-.016-.966-.039.394-1.353.654-2.688.763-3.972l2.008-2.008a4.05 4.05 0 001.124 3.767l1.944 1.1a10.83 10.83 0 01-4.873 1.152zm4.92-9.133l.623-.622c1.697.045 3.494-.135 5.312-.521a10.739 10.739 0 01-1.066 4.154l-1.17-1.943a4.062 4.062 0 00-3.699-1.068zm1.734 9.514c.159-.098.324-.166.476-.26l3.535-3.591 5.592 9.269-9.603-5.418zm16.089-20.467c-1.601 3.031-5.439 5.793-10.041 7.251a12.408 12.408 0 00-3.413-6.381l-6.177-6.17a22.86 22.86 0 014.868-2.154c7.079-2.18 14.107-.641 15.341 3.356.381 1.246.184 2.661-.578 4.098zm1.513-12.558l5.458-9.658c.013.019.019.043.032.069l3.959 3.89-9.449 5.699zm7.86-13.79l-1.1 1.951c-.75-1.5-1.15-3.159-1.15-4.88 0-.326.013-.649.038-.967 1.354.394 2.681.655 3.978.763l2.008 2.014a4.062 4.062 0 00-3.774 1.119zm3.875 6.857l1.938-1.17a4.066 4.066 0 001.067-3.699l.629.623c-.051 1.697.127 3.495.515 5.319a10.803 10.803 0 01-4.149-1.073zm4.654-9.582l-1.042-1.055c.826-.305 1.587-.68 2.211-1.17-.229.337-.458.688-.656 1.062a10.69 10.69 0 00-.513 1.163zm1.067 7.423l2.643 2.649c-.699.248-1.437.413-2.173.515a21.469 21.469 0 01-.47-3.164zm12.341 15.694c-1.245.382-2.656.185-4.099-.581-3.032-1.593-5.795-5.438-7.251-10.04a12.357 12.357 0 006.38-3.412l6.177-6.17a23.106 23.106 0 012.148 4.862c2.172 7.087.642 14.108-3.355 15.341z"/></svg></svg>